inDegrees=no
num_controls=7
num_derivatives=13
num_iterations=154
num_multipliers=7
num_parameters=0
num_slacks=7
num_states=26
objective=0.516730
objective_accelerations=0.039713
objective_balance=0.002160
objective_effort=0.043558
objective_height=0.419670
objective_ligament=0.011630
solver_duration=2041.194825
status=Solve_Succeeded
success=true
DataType=double
version=3
OpenSimVersion=4.5
endheader
time	/jointset/ground_pelvis/pelvis_tilt/value	/jointset/ground_pelvis/pelvis_tx/value	/jointset/ground_pelvis/pelvis_ty/value	/jointset/hip_l/hip_flexion_l/value	/jointset/hip_l/hip_adduction_l/value	/jointset/hip_l/hip_rotation_l/value	/jointset/back/lumbar_extension/value	/jointset/patellofemoral_l/patellar_flexion_l/value	/jointset/knee_l/knee_flexion_l/value	/jointset/knee_l/knee_adduction_l/value	/jointset/knee_l/knee_rotation_l/value	/jointset/ankle_l/ankle_angle_l/value	/jointset/subtalar_l/subtalar_angle_l/value	/jointset/ground_pelvis/pelvis_tilt/speed	/jointset/ground_pelvis/pelvis_tx/speed	/jointset/ground_pelvis/pelvis_ty/speed	/jointset/hip_l/hip_flexion_l/speed	/jointset/hip_l/hip_adduction_l/speed	/jointset/hip_l/hip_rotation_l/speed	/jointset/back/lumbar_extension/speed	/jointset/patellofemoral_l/patellar_flexion_l/speed	/jointset/knee_l/knee_flexion_l/speed	/jointset/knee_l/knee_adduction_l/speed	/jointset/knee_l/knee_rotation_l/speed	/jointset/ankle_l/ankle_angle_l/speed	/jointset/subtalar_l/subtalar_angle_l/speed	/forceset/tau_hip_flexion_l	/forceset/tau_hip_adduction_l	/forceset/tau_hip_rotation_l	/forceset/tau_knee_flexion_l	/forceset/tau_ankle_angle_l	/forceset/tau_subtalar_angle_l	/forceset/tau_lumbar_extension	lambda_cid13_p0	lambda_cid13_p1	lambda_cid13_p2	lambda_cid13_p3	lambda_cid13_p4	lambda_cid13_p5	lambda_cid14_p0	/jointset/ground_pelvis/pelvis_tilt/accel	/jointset/ground_pelvis/pelvis_tx/accel	/jointset/ground_pelvis/pelvis_ty/accel	/jointset/hip_l/hip_flexion_l/accel	/jointset/hip_l/hip_adduction_l/accel	/jointset/hip_l/hip_rotation_l/accel	/jointset/back/lumbar_extension/accel	/jointset/patellofemoral_l/patellar_flexion_l/accel	/jointset/knee_l/knee_flexion_l/accel	/jointset/knee_l/knee_adduction_l/accel	/jointset/knee_l/knee_rotation_l/accel	/jointset/ankle_l/ankle_angle_l/accel	/jointset/subtalar_l/subtalar_angle_l/accel	gamma_cid13_p0	gamma_cid13_p1	gamma_cid13_p2	gamma_cid13_p3	gamma_cid13_p4	gamma_cid13_p5	gamma_cid14_p0
0.5	-0.1184569526346651	-0.05497301545826837	0.8247540705793023	0.8886741684531628	-0.3239049234444479	-0.1225835626186666	-0.7793160056751557	0.7891417321190313	0.789141732119075	-0.1090595186459613	-0.1745150241541916	0.07318060373831876	-0.006398848330835286	-0.2005228233564207	-0.20201169100615	-0.3378672718894936	1.482105336615058	-0.04128603760166762	0.4581443678256062	-0.8390668680387123	1.437757310083857	1.437757310083898	0.1305558156716977	0.0002315770671646328	0.2476461201654668	0.0337291876135063	-0.2812756850789419	0.01662821091000031	-0.003281595817787381	-0.2112094871932856	0.1120268428646355	0.05332322050154474	0.3299925393407799	-8.447463663380248	-23.22217161268287	5.010403796986252	-9.613058994277559	-703.8388483770881	-80.63765549003638	-14.8711673860533	0.2809358863246351	0.651881299409936	-0.1111586601243027	-1.442888871870218	0.2240832270348047	-0.3482774660930747	1.718424218355351	-1.109085465582033	-1.109085465582065	-0.2828222702233023	0.02283417150550476	0.005293237312431523	0.2487600918099343	-5.495115770146148e-08	-4.880693243637194e-07	7.359857001102669e-08	-5.604021893968702e-08	-7.920698252791924e-08	-5.809274085504686e-08	-7.953149304544796e-08
0.51	-0.1204478834380054	-0.05696044538672645	0.8213705738373224	0.9034209251727388	-0.3243069742267519	-0.1180207677264448	-0.7876198521757253	0.803461603813613	0.8034616038136847	-0.1077685381666904	-0.1745124988180402	0.07565662097198261	-0.006049749028402478	-0.1976345497495963	-0.1954656996393499	-0.3387561954793631	1.467039100347188	-0.03912409284866247	0.4543426417717174	-0.8216155049898369	1.42600249735699	1.426002497357059	0.1276448586318724	0.0002634037604428199	0.2475068517656879	0.03607664168293821	-0.2876558819539234	0.01695011801371415	-0.003493572578029625	-0.213694282899989	0.1120759705260304	0.05377416441574603	0.3361256532944044	-8.64909515192001	-23.34275526329881	4.983987481754792	-9.601520361041999	-707.719894975119	-80.58706481476266	-14.34455464004069	0.2970863061114557	0.6572378503335433	-0.06639321357619803	-1.569532578511796	0.2122948445932055	-0.4069880564148186	1.77153141107407	-1.24084275811726	-1.24084275811306	-0.2946221328451881	-0.008122942321005296	-0.03112411572628906	0.2256910162427775	-7.576306803124228e-08	-3.725490403166688e-07	2.491150517673896e-07	-2.365671864513914e-08	-9.206943005331078e-08	-4.709047106072102e-08	-8.694170460186021e-08
0.52	-0.1224090688636338	-0.05888215944251288	0.817980461058412	0.9180108112147786	-0.3246873966124942	-0.1134981636710337	-0.7957465772332231	0.8176574946645555	0.8176574946646478	-0.1065065452002313	-0.1745099511870545	0.07812972807422834	-0.005677584594928805	-0.194573747812755	-0.1888685164718213	-0.3391904792755643	1.450731201108661	-0.03696035828926582	0.4501062004627081	-0.8036425794241369	1.412961141354993	1.412961141355089	0.1247583131127272	0.0002360360313210446	0.2470640938817777	0.03834221382168841	-0.294036078828902	0.01727202511743628	-0.003705549338389133	-0.2161790786066879	0.1121250981874283	0.05422510832995997	0.3422587672480288	-8.853895198848161	-23.46383928418719	4.958856294871576	-9.616911007188232	-711.6736661201473	-80.56088829631159	-13.81501374168578	0.3154415523281212	0.6621196595555608	-0.02023070139066949	-1.691221466001799	0.2244411883130959	-0.4352205171172172	1.822736721720346	-1.366394120608181	-1.366394120608123	-0.2779399660872616	0.01099528702550801	-0.05540465951392937	0.2323837056735668	-1.07310632165668e-07	-2.169965597118326e-07	5.08570073199732e-07	2.412943411697419e-08	-1.148464853386748e-07	-3.060111974891686e-08	-9.95576952578856e-08
0.53	-0.1243388231640278	-0.0607377187128642	0.8145882917355797	0.9324314841359882	-0.3250463368148706	-0.1090188451761557	-0.8036911178502623	0.8317165136515313	0.8317165136515058	-0.1052743412565159	-0.174507178484157	0.08059680858538798	-0.005283401478403523	-0.1913526540117999	-0.1822421508534226	-0.3391656453752115	1.433204703932839	-0.0348315535817615	0.4456899727428114	-0.7851935815194179	1.398627991491411	1.398627991491543	0.1216796338074066	0.0003088215049292549	0.2462961797613572	0.04047402235235967	-0.3001894909607423	0.01759120625846376	-0.003907865838377459	-0.2186740764910699	0.112037373567685	0.0545209296557861	0.3481391562188811	-9.105246280332722	-23.50696896383677	4.9185166892433	-9.494097470689631	-715.5236665252564	-80.41893241730683	-13.28325828262206	0.3290988111548477	0.6630828704053306	0.02547606103047078	-1.813182213776502	0.2064474074582482	-0.4550525373481933	1.8667756945934	-1.498953864548032	-1.498953864542728	-0.3232622311160329	0.004096830944026981	-0.09586117770896505	0.2004676593675913	-1.211891800261512e-07	-1.153314743088071e-07	6.446346392185953e-07	5.091200147728242e-08	-1.220355665048083e-07	-1.529675029656813e-08	-1.034239354823017e-07
0.54	-0.1262356354229825	-0.06252697675554687	0.8111986978768072	0.9466709284113541	-0.3253841195110735	-0.1045857346860661	-0.8114490096143062	0.8456257654508004	0.845625765450675	-0.1040730101695008	-0.1745039425958547	0.08305453467746196	-0.004868522630050841	-0.1879853395238021	-0.1756082709380915	-0.3386753864635874	1.414485471940855	-0.0327288570546863	0.4408645995060185	-0.7663128088248639	1.383007703815232	1.383007703815399	0.11858374176762	0.0003286731151614355	0.2451932100648206	0.04248136018717753	-0.3063429030925928	0.01791038739947799	-0.004110182338196254	-0.2211690743754637	0.1119496489479355	0.05481675098159344	0.3540195451897284	-9.360355524805746	-23.55037510475552	4.879289103011624	-9.400948672872568	-719.4568849743166	-80.31471323399745	-12.75015162659974	0.3446856897367739	0.6636225189419773	0.07285430086361895	-1.929768429234561	0.2192195522272865	-0.5170496204964841	1.909091679687357	-1.623821683127582	-1.623821683127636	-0.2813825129804485	0.0004085143502996925	-0.1224157747372275	0.2074895665028609	-1.155190290303572e-07	-7.328648572480688e-08	6.441821056310546e-07	5.445655945686985e-08	-1.119783784326442e-07	-1.303424603616898e-09	-9.760960076110747e-08
0.55	-0.1280980897473973	-0.06424990622785975	0.807816335923866	0.9607173660355455	-0.3257009910916687	-0.1002026973714985	-0.8190160424891271	0.8593725023051202	0.8593725023050246	-0.1029027656537524	-0.1745006050859047	0.08549960956987618	-0.004434165836864313	-0.1844831135869267	-0.1689808096912557	-0.3377183389077085	1.394610107076782	-0.03065384208554095	0.4356822970834979	-0.7470353820335326	1.366132376579517	1.366132376579597	0.1154559214534808	0.0003309439319352588	0.2437681386916835	0.04436508730378993	-0.3122196582024255	0.01806598094247897	-0.004289110407570817	-0.2237367519929794	0.1118631943989555	0.05505557222021178	0.3596229891357388	-9.610037150845338	-23.56875677969418	4.834678244460487	-9.247314402684312	-723.2425072377983	-80.20053071211028	-12.21665508538619	0.3563401590055184	0.661841280374752	0.1189084669297083	-2.045228070599634	0.200302145146808	-0.5279935838932309	1.945825794816277	-1.750462926584092	-1.750462926596977	-0.3298587852142644	-0.0009185817760159357	-0.1605957130500147	0.1750103755300886	-1.084668604315986e-07	-3.824053109813951e-08	6.319409598625037e-07	5.581425534937607e-08	-1.008290191338571e-07	1.103337159264e-08	-9.120714973099532e-08
0.5600000000000001	-0.1299248519897806	-0.06590665441714023	0.8044459001432797	0.9745592884999711	-0.3259973805873938	-0.09587331768730725	-0.8263885495728437	0.8729442709505288	0.8729442709504568	-0.1017640747400755	-0.1744974558572007	0.0879288251696696	-0.003981732554253764	-0.180846923116336	-0.1623720143316088	-0.3362901519926597	1.373582439988468	-0.02863244008085132	0.4301330734304429	-0.727407650603785	1.348014062032176	1.34801406203217	0.1122730213559989	0.0002910168640313129	0.2420213515406224	0.04609665807198873	-0.3180964133122579	0.01822157448548584	-0.004468038477041138	-0.2263044296104936	0.1117767398499768	0.05529439345883824	0.365226433081748	-9.86424832875851	-23.58732190396843	4.791212618870242	-9.120434046862902	-727.1209064655362	-80.12345063009677	-11.68384391451034	0.3714785964799009	0.659889341504157	0.1670821726976068	-2.16022887408309	0.2084969593361387	-0.5904338666033884	1.979152607370656	-1.872419145452597	-1.872419145452651	-0.2923984696489746	-0.008031062585250135	-0.1867589303220816	0.1770582968201253	-9.97562707092824e-08	-1.159341722027128e-08	6.055534794767407e-07	5.454771673738491e-08	-8.836905436312269e-08	2.138233239286379e-08	-8.409895913018174e-08
0.5700000000000001	-0.1317146062719948	-0.06749744476334192	0.801092093156347	0.9881853359743562	-0.326273748022996	-0.09160112052500857	-0.8335630906421296	0.8863288309233438	0.8863288309233497	-0.1006573600420634	-0.1744947568457742	0.09033907542433814	-0.003512629752674405	-0.1770811200814162	-0.1557925429932186	-0.3343927749622027	1.3514429444422	-0.02664905579219859	0.4242563088609256	-0.7074515743183344	1.328704176057397	1.328704176057525	0.1090615138209188	0.000249413329360215	0.2399825438011104	0.0477015356360567	-0.3237615657055902	0.01835561924826374	-0.004618255943932686	-0.2288256400867356	0.1116124801097499	0.05540888469877606	0.3706011417302549	-10.13789624034268	-23.54651573694921	4.736029092652477	-8.930935115290684	-730.8205334502148	-79.95203565576236	-11.15277584728362	0.3825418724449287	0.6560135834623581	0.2128197687462399	-2.268440249132382	0.191975435913771	-0.5938787557978213	2.011183479476454	-1.989320778841183	-1.989320778820931	-0.3367722421577327	-0.002014026498950418	-0.2193612256585848	0.1487778050032876	-9.06632298496642e-08	1.450922546689687e-08	5.769871296965977e-07	5.303228023194069e-08	-7.597662160630451e-08	3.096023319581459e-08	-7.670746820076461e-08
0.58	-0.1334660203807757	-0.06902263288546852	0.7977596107998242	1.001584462422428	-0.3265305383612539	-0.08738920720914253	-0.8405366012804933	0.8995144825453401	0.8995144825454291	-0.09958300948874432	-0.1744924316752129	0.09272755369563258	-0.003028163111693765	-0.1731788884286077	-0.1492515695165909	-0.3320252259107024	1.328198234726586	-0.02471702061218683	0.4180763041445306	-0.6872015644191115	1.308232391868594	1.308232391868858	0.1058001924170301	0.000216248691053378	0.2376669548658838	0.04916942595225039	-0.3294267180989268	0.01848966401103638	-0.004768473410805263	-0.2313468505629813	0.1114482203695204	0.05552337593870699	0.3759758503787594	-10.41689910517217	-23.50563608888457	4.681821393315587	-8.764103972510686	-734.622542336986	-79.8157786445588	-10.62473233304982	0.3987643200576998	0.6521897691516385	0.261116576906259	-2.381271707952331	0.1982271376079462	-0.6510818959789101	2.037939330125134	-2.104798788257168	-2.104798788257148	-0.3023612434106804	-0.006343283312396289	-0.2421151694650629	0.1496608472452522	-8.107211309030392e-08	3.990278939408326e-08	5.455831825656346e-07	5.119269763269717e-08	-6.367213751877276e-08	3.953396283952607e-08	-6.894702800618948e-08
0.59	-0.1351777768074232	-0.07048265191829574	0.7944531275654507	1.014745831535206	-0.3267681994808522	-0.0832406306443572	-0.8473062698881826	0.9124898095762892	0.9124898095763271	-0.09854131301993406	-0.1744903695315017	0.095091573208527	-0.002529606794464997	-0.1691514595448661	-0.1427630624690724	-0.3291950672525223	1.303904842493384	-0.02282519074695799	0.4115843877208525	-0.666698882128425	1.286654604607613	1.286654604607689	0.1025375174159238	0.0001912786246809461	0.2350952645992132	0.05051858769858131	-0.3347272889465475	0.01853945531575446	-0.004892351136978003	-0.2338537096671176	0.1112434154237004	0.05554252023956647	0.3809689515717845	-10.69521081372755	-23.42177876347074	4.618831552634809	-8.532278261079352	-738.1191118228854	-79.62233150810611	-10.10104008676613	0.4078631791646452	0.6455673824034723	0.3054072742799359	-2.478996361445558	0.1830830040530048	-0.6564975668127077	2.061423927156598	-2.211017271956048	-2.211017271984072	-0.3384369265484296	-0.001205262836143521	-0.27094241324792	0.1239858072019718	-7.17541137495509e-08	6.159205376222528e-08	5.123227404973527e-07	4.905083459663223e-08	-5.227579059200607e-08	4.647792015520322e-08	-6.139979877423817e-08
